<svg width="85" height="20" viewBox="0 0 85 20" fill="none" xmlns="http://www.w3.org/2000/svg">
<path d="M4.6 7.14L3.7 15H0.72L2.8 0.3L8.66 9.34L14.52 0.3L16.6 15H13.62L12.72 7.14L8.66 13.7L4.6 7.14ZM20.4442 12.14C20.4442 12.4067 20.5109 12.64 20.6442 12.84C20.7776 13.0267 20.9576 13.1733 21.1842 13.28C21.4242 13.3733 21.6842 13.42 21.9642 13.42C22.3642 13.42 22.7242 13.34 23.0442 13.18C23.3642 13.0067 23.6242 12.7667 23.8242 12.46C24.0242 12.14 24.1242 11.76 24.1242 11.32L24.4442 12.52C24.4442 13.1067 24.2776 13.6 23.9442 14C23.6242 14.4 23.2042 14.7 22.6842 14.9C22.1776 15.1 21.6442 15.2 21.0842 15.2C20.5109 15.2 19.9776 15.0867 19.4842 14.86C18.9909 14.6333 18.5909 14.3067 18.2842 13.88C17.9909 13.44 17.8442 12.9067 17.8442 12.28C17.8442 11.3867 18.1576 10.68 18.7842 10.16C19.4109 9.64 20.2976 9.38 21.4442 9.38C22.0309 9.38 22.5442 9.44 22.9842 9.56C23.4376 9.68 23.8176 9.82667 24.1242 10C24.4309 10.1733 24.6509 10.34 24.7842 10.5V11.7C24.4242 11.4333 24.0176 11.2333 23.5642 11.1C23.1242 10.9667 22.6576 10.9 22.1642 10.9C21.7642 10.9 21.4376 10.9533 21.1842 11.06C20.9309 11.1533 20.7442 11.2933 20.6242 11.48C20.5042 11.6533 20.4442 11.8733 20.4442 12.14ZM19.4442 8.4L18.4842 6.64C18.9642 6.38667 19.5509 6.14667 20.2442 5.92C20.9376 5.68 21.7109 5.56 22.5642 5.56C23.3509 5.56 24.0509 5.67333 24.6642 5.9C25.2776 6.12667 25.7576 6.46 26.1042 6.9C26.4509 7.32667 26.6242 7.85333 26.6242 8.48V15H24.1242V9.02C24.1242 8.76667 24.0842 8.55333 24.0042 8.38C23.9242 8.19333 23.7976 8.04 23.6242 7.92C23.4642 7.8 23.2709 7.71333 23.0442 7.66C22.8176 7.60667 22.5642 7.58 22.2842 7.58C21.8576 7.58 21.4509 7.62667 21.0642 7.72C20.6776 7.81333 20.3442 7.92667 20.0642 8.06C19.7842 8.19333 19.5776 8.30667 19.4442 8.4ZM28.5939 15.64H31.1339C31.1472 16.04 31.2539 16.38 31.4539 16.66C31.6539 16.9533 31.9272 17.18 32.2739 17.34C32.6206 17.5 33.0272 17.58 33.4939 17.58C33.9206 17.58 34.3206 17.48 34.6939 17.28C35.0806 17.08 35.3872 16.7733 35.6139 16.36C35.8539 15.9467 35.9739 15.4267 35.9739 14.8V5.8H38.4739V14.8C38.4739 15.9333 38.2472 16.8667 37.7939 17.6C37.3539 18.3333 36.7606 18.8667 36.0139 19.2C35.2672 19.5467 34.4539 19.72 33.5739 19.72C32.5072 19.72 31.6139 19.5467 30.8939 19.2C30.1739 18.8667 29.6206 18.3867 29.2339 17.76C28.8606 17.1467 28.6472 16.44 28.5939 15.64ZM28.4139 10.32C28.4139 9.29333 28.6206 8.43333 29.0339 7.74C29.4472 7.03333 29.9939 6.5 30.6739 6.14C31.3539 5.78 32.0739 5.6 32.8339 5.6C33.6072 5.6 34.2872 5.78667 34.8739 6.16C35.4739 6.53333 35.9406 7.07333 36.2739 7.78C36.6206 8.47333 36.7939 9.32 36.7939 10.32C36.7939 11.3067 36.6206 12.1533 36.2739 12.86C35.9406 13.5667 35.4739 14.1067 34.8739 14.48C34.2872 14.84 33.6072 15.02 32.8339 15.02C32.0739 15.02 31.3539 14.84 30.6739 14.48C29.9939 14.12 29.4472 13.5933 29.0339 12.9C28.6206 12.1933 28.4139 11.3333 28.4139 10.32ZM31.0939 10.32C31.0939 10.8667 31.2072 11.3333 31.4339 11.72C31.6606 12.0933 31.9672 12.38 32.3539 12.58C32.7406 12.78 33.1539 12.88 33.5939 12.88C33.9806 12.88 34.3539 12.7867 34.7139 12.6C35.0872 12.4 35.3872 12.1133 35.6139 11.74C35.8539 11.3533 35.9739 10.88 35.9739 10.32C35.9739 9.89333 35.9072 9.52 35.7739 9.2C35.6406 8.88 35.4539 8.61333 35.2139 8.4C34.9872 8.18667 34.7339 8.02667 34.4539 7.92C34.1739 7.8 33.8872 7.74 33.5939 7.74C33.1539 7.74 32.7406 7.84 32.3539 8.04C31.9672 8.24 31.6606 8.53333 31.4339 8.92C31.2072 9.29333 31.0939 9.76 31.0939 10.32ZM46.927 9.4C46.927 8.78667 46.807 8.32 46.567 8C46.327 7.68 45.9404 7.52 45.407 7.52C45.047 7.52 44.727 7.6 44.447 7.76C44.167 7.90667 43.9537 8.12 43.807 8.4C43.6604 8.68 43.587 9.01333 43.587 9.4V15H40.987V5.8H43.587V7.2C43.867 6.68 44.2337 6.28667 44.687 6.02C45.1537 5.74 45.7137 5.6 46.367 5.6C47.4604 5.6 48.2737 5.91333 48.807 6.54C49.3404 7.15333 49.607 8.01333 49.607 9.12V15H46.927V9.4ZM56.4989 15.2C55.4989 15.2 54.6256 15 53.8789 14.6C53.1322 14.2 52.5522 13.6467 52.1389 12.94C51.7389 12.22 51.5389 11.3733 51.5389 10.4C51.5389 9.41333 51.7389 8.56667 52.1389 7.86C52.5522 7.14 53.1322 6.58667 53.8789 6.2C54.6256 5.8 55.5056 5.6 56.5189 5.6C57.5322 5.6 58.3922 5.78667 59.0989 6.16C59.8189 6.52 60.3656 7.05333 60.7389 7.76C61.1122 8.45333 61.2989 9.29333 61.2989 10.28C61.2989 10.4 61.2922 10.5267 61.2789 10.66C61.2789 10.7933 61.2722 10.9 61.2589 10.98H53.0189V9.38H58.9989L58.2989 10.3C58.3522 10.22 58.3989 10.1133 58.4389 9.98C58.4922 9.83333 58.5189 9.71333 58.5189 9.62C58.5189 9.16667 58.4322 8.78 58.2589 8.46C58.0989 8.14 57.8656 7.88667 57.5589 7.7C57.2522 7.51333 56.8922 7.42 56.4789 7.42C55.9722 7.42 55.5456 7.53333 55.1989 7.76C54.8656 7.97333 54.6056 8.3 54.4189 8.74C54.2456 9.16667 54.1522 9.7 54.1389 10.34C54.1389 10.9533 54.2256 11.4733 54.3989 11.9C54.5856 12.3267 54.8589 12.6533 55.2189 12.88C55.5789 13.1067 56.0122 13.22 56.5189 13.22C57.0922 13.22 57.5789 13.1133 57.9789 12.9C58.3922 12.6733 58.7322 12.34 58.9989 11.9L61.2589 12.6C60.7789 13.4667 60.1389 14.12 59.3389 14.56C58.5522 14.9867 57.6056 15.2 56.4989 15.2ZM62.0727 5.8H67.7527V7.98H62.0727V5.8ZM63.6527 2.6H66.1527V15H63.6527V2.6ZM67.9516 5.8H73.6316V7.98H67.9516V5.8ZM69.5316 2.6H72.0316V15H69.5316V2.6ZM74.3905 10.4C74.3905 9.44 74.6105 8.6 75.0505 7.88C75.5038 7.16 76.1105 6.6 76.8705 6.2C77.6438 5.8 78.5171 5.6 79.4905 5.6C80.4638 5.6 81.3305 5.8 82.0905 6.2C82.8638 6.6 83.4705 7.16 83.9105 7.88C84.3638 8.6 84.5905 9.44 84.5905 10.4C84.5905 11.3467 84.3638 12.1867 83.9105 12.92C83.4705 13.64 82.8638 14.2 82.0905 14.6C81.3305 15 80.4638 15.2 79.4905 15.2C78.5171 15.2 77.6438 15 76.8705 14.6C76.1105 14.2 75.5038 13.64 75.0505 12.92C74.6105 12.1867 74.3905 11.3467 74.3905 10.4ZM77.0305 10.4C77.0305 10.92 77.1371 11.38 77.3505 11.78C77.5771 12.1667 77.8771 12.4733 78.2505 12.7C78.6238 12.9133 79.0371 13.02 79.4905 13.02C79.9438 13.02 80.3571 12.9133 80.7305 12.7C81.1038 12.4733 81.3971 12.1667 81.6105 11.78C81.8371 11.38 81.9505 10.92 81.9505 10.4C81.9505 9.88 81.8371 9.42 81.6105 9.02C81.3971 8.62 81.1038 8.31333 80.7305 8.1C80.3571 7.88667 79.9438 7.78 79.4905 7.78C79.0371 7.78 78.6238 7.88667 78.2505 8.1C77.8771 8.31333 77.5771 8.62 77.3505 9.02C77.1371 9.42 77.0305 9.88 77.0305 10.4Z" fill="white"/>
</svg>
